<svg xmlns="http://www.w3.org/2000/svg" xmlns:xlink="http://www.w3.org/1999/xlink" width="840" height="581.04"><rect width="840" height="581.04" rx="5" ry="5" class="a"/><svg y="0%" x="0%"><circle cx="20" cy="20" r="6" fill="#ff5f58"/><circle cx="40" cy="20" r="6" fill="#ffbd2e"/><circle cx="60" cy="20" r="6" fill="#18c132"/></svg><svg height="521.04" viewBox="0 0 80 52.104" width="800" x="15" xmlns="http://www.w3.org/2000/svg" xmlns:xlink="http://www.w3.org/1999/xlink" y="50"><style>@keyframes m{0%{transform:translateX(0)}14.6%{transform:translateX(-80px)}14.7%{transform:translateX(-160px)}22%{transform:translateX(-400px)}29.2%{transform:translateX(-560px)}36.2%{transform:translateX(-720px)}43.4%{transform:translateX(-880px)}50.5%{transform:translateX(-1040px)}57.9%{transform:translateX(-1200px)}65.6%{transform:translateX(-1280px)}72.7%{transform:translateX(-1440px)}79.9%{transform:translateX(-1600px)}87%{transform:translateX(-1840px)}94.3%{transform:translateX(-1920px)}94.4%{transform:translateX(-2000px)}99.8%{transform:translateX(-2160px)}99.9%{transform:translateX(-2240px)}to{transform:translateX(-2320px)}}.a{fill:#263238}.f{fill:#18ffff}.g{fill:#8ea2a8}</style><g font-size="1.67" font-family="Monaco,Consolas,Menlo,'Bitstream Vera Sans Mono','Powerline Symbols',monospace"><defs><symbol id="1"><text y="1.67" class="f">⠋</text><text x="2.004" y="1.67" class="g">Loading</text><text x="10.02" y="1.67" class="g">...</text></symbol><symbol id="2"><text y="1.67" class="f">⠙</text><text x="2.004" y="1.67" class="g">Loading</text><text x="10.02" y="1.67" class="g">...</text></symbol><symbol id="3"><text y="1.67" fill="#c3d82c">✔</text><text x="2.004" y="1.67" class="g">Weather</text><text x="10.02" y="1.67" class="g">report:</text></symbol><symbol id="4"><text y="1.67" class="g">It&apos;s</text><path fill="#a8cc8c" d="M5.01 0h6v2.171h-6z"/><text x="5.01" y="1.67" fill="#f5f5f5" font-weight="700">11°C</text><text x="12.024" y="1.67" class="g">in</text><text x="15.03" y="1.67" fill="#40c4ff" font-weight="700">BERLIN</text></symbol><symbol id="a"><path fill="transparent" d="M0 0h80v24H0z"/></symbol><symbol id="b"><path class="f" d="M0 0h1.102v2.171H0z"/></symbol></defs><path class="a" d="M0 0h80v52.104H0z"/><g style="animation-duration:1.147841s;animation-iteration-count:infinite;animation-name:m;animation-timing-function:steps(1,end)"><svg width="2400"><svg><use xlink:href="#a"/><use xlink:href="#b" x="-.004"/></svg><svg x="80"><use xlink:href="#a"/></svg><svg x="160"><use xlink:href="#a"/><use xlink:href="#1"/></svg><svg x="240"><use xlink:href="#a"/></svg><svg x="320"><use xlink:href="#a"/></svg><svg x="400"><use xlink:href="#a"/><use xlink:href="#2"/></svg><svg x="480"><use xlink:href="#a"/></svg><svg x="560"><use xlink:href="#a"/><text y="1.67" class="f">⠹</text><text x="2.004" y="1.67" class="g">Loading</text><text x="10.02" y="1.67" class="g">...</text></svg><svg x="640"><use xlink:href="#a"/></svg><svg x="720"><use xlink:href="#a"/><text y="1.67" class="f">⠸</text><text x="2.004" y="1.67" class="g">Loading</text><text x="10.02" y="1.67" class="g">...</text></svg><svg x="800"><use xlink:href="#a"/></svg><svg x="880"><use xlink:href="#a"/><text y="1.67" class="f">⠼</text><text x="2.004" y="1.67" class="g">Loading</text><text x="10.02" y="1.67" class="g">...</text></svg><svg x="960"><use xlink:href="#a"/></svg><svg x="1040"><use xlink:href="#a"/><text y="1.67" class="f">⠴</text><text x="2.004" y="1.67" class="g">Loading</text><text x="10.02" y="1.67" class="g">...</text></svg><svg x="1120"><use xlink:href="#a"/></svg><svg x="1200"><use xlink:href="#a"/><text y="1.67" class="f">⠦</text><text x="2.004" y="1.67" class="g">Loading</text><text x="10.02" y="1.67" class="g">...</text></svg><svg x="1280"><use xlink:href="#a"/><text y="1.67" class="f">⠧</text><text x="2.004" y="1.67" class="g">Loading</text><text x="10.02" y="1.67" class="g">...</text></svg><svg x="1360"><use xlink:href="#a"/></svg><svg x="1440"><use xlink:href="#a"/><text y="1.67" class="f">⠇</text><text x="2.004" y="1.67" class="g">Loading</text><text x="10.02" y="1.67" class="g">...</text></svg><svg x="1520"><use xlink:href="#a"/></svg><svg x="1600"><use xlink:href="#a"/><text y="1.67" class="f">⠏</text><text x="2.004" y="1.67" class="g">Loading</text><text x="10.02" y="1.67" class="g">...</text></svg><svg x="1680"><use xlink:href="#a"/></svg><svg x="1760"><use xlink:href="#a"/></svg><svg x="1840"><use xlink:href="#a"/><use xlink:href="#1"/></svg><svg x="1920"><use xlink:href="#a"/></svg><svg x="2000"><use xlink:href="#a"/><use xlink:href="#2"/></svg><svg x="2080"><use xlink:href="#a"/></svg><svg x="2160"><use xlink:href="#a"/><use xlink:href="#b" x="-.004" y="4.317"/><use xlink:href="#3"/></svg><svg x="2240"><use xlink:href="#a"/><use xlink:href="#b" x="-.004" y="8.659"/><use xlink:href="#3"/><use xlink:href="#4" y="4.342"/></svg><svg x="2320"><use xlink:href="#a"/><use xlink:href="#b" x="-.004" y="8.659"/><use xlink:href="#3"/><use xlink:href="#4" y="4.342"/></svg></svg></g></g></svg></svg>